{
  "example": "https://github.com/fbsamples/glTF-Renderer/blob/master/app/src/main/assets/helloworld.gltf",
  "docs": "https://github.com/KhronosGroup/glTF-Tutorials/blob/master/gltfTutorial/README.md",

  "scenes" : [
    {
      "nodes" : [ 0 ]
    }
  ],

  "nodes" : [
    {
      "mesh" : 0,
      "translation": [ -0.2, 0.1, 0.3 ],
      "rotation": [ 0, 0.3420201, 0, 0.9396926 ],
      "scale": [ 1.2, 1.2, 1.2 ]
    }
  ],

  "meshes" : [
    {
      "primitives" : [ {
        "attributes" : {
          "POSITION" : 1
        },
        "indices" : 0,
        "material" : 0
      } ]
    }
  ],
  "materials": [
        {
            "pbrMetallicRoughness": {
              "baseColorFactor": [ 0.08, 0.095, 0.17, 0.1 ],
              "metallicFactor": 0.3,
              "roughnessFactor": 0.1
            },
            "doubleSided": true,
            "name": "blinn3-fx"
        }
   ],
  "buffers" : [
    {
      "uri" : "data:application/octet-stream;base64,",
      "byteLength" : 44
    }
  ],
  "bufferViews" : [
    {
      "buffer" : 0,
      "byteOffset" : 0,
      "byteLength" : 6,
      "target" : 34963
    },
    {
      "buffer" : 0,
      "byteOffset" : 8,
      "byteLength" : 36,
      "target" : 34962
    }
  ],
  "accessors" : [
    {
      "bufferView" : 0,
      "byteOffset" : 0,
      "componentType" : 5123,
      "count" : 3,
      "type" : "SCALAR",
      "max" : [ 2 ],
      "min" : [ 0 ]
    },
    {
      "bufferView" : 1,
      "byteOffset" : 0,
      "componentType" : 5126,
      "count" : 3,
      "type" : "VEC3",
      "max" : [ 1.0, 1.0, 0.0 ],
      "min" : [ 0.0, 0.0, 0.0 ]
    }
  ],

  "asset" : {
    "version" : "2.0"
  }
}
