P3
6 5 255


255 0 0
180 0 0
128 50 0
32 84 0
128 128 0
255 255 0

128 0 128
200 0 0
160 0 0
255 70 0
32 64 0
128 128 0

1 0 128
64 0 128
170 0 0
140 0 0
64 50 0
32 64 0

0 0 255
1 0 128
128 0 128
128 0 0
90 0 0
32 32 0

64 64 255
0 0 255
1 0 128
128 0 128
128 0 0
90 0 0
