<svg
viewBox='0 0 280 280'
xmlns="http://www.w3.org/2000/svg" xmlns:svg="http://www.w3.org/2000/svg">
  <style>
    body {
      background: radial-gradient(#4a0017, #000000);
      display: flex;
      justify-content: center;
      align-items: center;
      margin-bottom: 25%;
      margin-top: auto;
    }
  </style>
  <style>
    .bg1 {
        fill: #61ddff;
        fill: white;
    }
    .bg2 {
        fill: #ff8ac0;
    }
    .integral {
        fill: #8003a6;
        stroke: #8003a6;
        fill: #7d7d7d;
        stroke: #7d7d7d;
    }
    .border {
        stroke: #83008a;
        stroke: #7d7d7d;
    }
    svg {
      /*filter: drop-shadow(0 0px 6px black);*/
      opacity: 0.7;
      margin: auto;
      width: 90%;
      max-width: 25em;
    }
 </style>
 <g class="layer" display="inline">
  <title>Bartok Logo</title>

  <circle class="border" cx="140" cy="140" fill="none" id="svg_1" r="135" stroke-width="10"/>

  <g class="layer" id="svg_2">
   <path class="integral" d="m93.686137,261.69882c-16.700832,-5.542764 -24.733299,-18.87117 -17.669125,-28.944012c7.064173,-10.072841 20.272578,-6.7015 24.208811,1.926228c3.936233,8.627728 17.468091,9.479154 22.648254,-1.867055c5.180163,-11.346208 3.396099,-91.986382 3.604994,-97.468656c0.208895,-5.482274 -2.962833,-71.512999 9.455411,-96.647802c12.418244,-25.134803 36.519093,-26.264718 51.805321,-19.693539c15.286228,6.571178 21.021715,15.762236 15.980223,26.021525c-5.041492,10.259289 -21.573101,9.510489 -25.260653,-1.770694c-3.687552,-11.281184 -16.113209,-11.745379 -21.519095,-2.106303c-5.405886,9.639075 -3.264771,88.402146 -3.231873,93.674359c0.032898,5.272213 2.303952,75.74324 -6.08395,101.11582c-8.387902,25.37258 -37.237483,31.302895 -53.938316,25.760131l-0.000002,-0.000002z" id="svg_3" stroke-opacity="0" stroke-width="0"/>
  </g>

 </g>

 <g class="layer" display="none">
  <title>Guides</title>

  <circle cx="172" cy="55.729927" fill="#aaffaa" id="svg_4" opacity="0.7" r="40" stroke-opacity="0" stroke-width="0"/>
  <circle cx="106.35" cy="223.6" fill="#aaffaa" id="svg_27" opacity="0.7" r="40" stroke-opacity="0" stroke-width="0"/>
  <circle cx="191.364964" cy="38.364964" fill="#ff0000" id="svg_33" opacity="0.7" r="14" stroke-opacity="0" stroke-width="0"/>
  <circle cx="87.4" cy="240.750328" fill="#ff0000" id="svg_32" opacity="0.7" r="13.960197" stroke-opacity="0" stroke-width="0"/>
  <rect fill="#ff00ff" height="281" id="svg_31" opacity="0.7" stroke-opacity="0" stroke-width="0" width="27.34694" x="126" y="0.1"/>
  <circle cx="110.997613" cy="230.094891" fill="#aaffff" id="svg_30" opacity="0.7" r="11.349998" stroke-opacity="0" stroke-width="0"/>
  <circle cx="167" cy="46.064964" fill="#aaffff" id="svg_29" opacity="0.7" r="11.349998" stroke-opacity="0" stroke-width="0"/>
 </g>

 <g class="layer">
  <title>Diamond</title>
  <rect class="diamond integral" fill="none" height="11.203765" id="svg_7" stroke-width="24" transform="rotate(-45 139.948 137.698)" width="10.473084" x="134.711135" y="132.095788"/>
 </g>
</svg>
